<?xml version="1.0" standalone="no"?><!DOCTYPE svg PUBLIC "-//W3C//DTD SVG 1.1//EN" "http://www.w3.org/Graphics/SVG/1.1/DTD/svg11.dtd"><svg t="1781094782033" class="icon" viewBox="0 0 1024 1024" version="1.1" xmlns="http://www.w3.org/2000/svg" p-id="5238" xmlns:xlink="http://www.w3.org/1999/xlink" width="200" height="200"><path d="M1014.624 425.376a32 32 0 0 0-45.28 0L768 626.72 429.248 288l201.376-201.344a32.032 32.032 0 0 0-45.28-45.28L384 242.752a64 64 0 0 0-11.264 75.264L288 402.752a64 64 0 0 0 0 90.496l18.752 18.752-233.376 233.376a32 32 0 0 0 12.48 52.992l288 96a32 32 0 0 0 32.768-7.712L544 749.216l18.752 18.752a64 64 0 0 0 90.496 0l84.704-84.736A64 64 0 0 0 813.248 672l201.376-201.376a32 32 0 0 0 0-45.28zM608 722.72L333.248 448 416 365.248 690.752 640 608 722.752z" p-id="5239"></path></svg>