<?xml version="1.0" standalone="no"?><!DOCTYPE svg PUBLIC "-//W3C//DTD SVG 1.1//EN" "http://www.w3.org/Graphics/SVG/1.1/DTD/svg11.dtd"><svg t="1781094712184" class="icon" viewBox="0 0 1024 1024" version="1.1" xmlns="http://www.w3.org/2000/svg" p-id="1673" xmlns:xlink="http://www.w3.org/1999/xlink" width="200" height="200"><path d="M85.333333 106.666667h170.666667v170.666666H85.333333V106.666667z m341.333334 170.666666v170.666667h-170.666667v-170.666667h170.666667z m-170.666667 341.333334H85.333333v-170.666667h170.666667v170.666667z m170.666667 0h-170.666667v149.333333H85.333333v170.666667h170.666667v-149.333334h170.666667v149.333334h170.666666v-149.333334h170.666667v149.333334h170.666667v-170.666667h-170.666667v-149.333333h170.666667v-170.666667h-170.666667v-170.666667h170.666667V106.666667h-170.666667v170.666666h-170.666667V106.666667h-170.666666v170.666666h170.666666v170.666667h-170.666666v170.666667z m170.666666 0h-170.666666v149.333333h170.666666v-149.333333z m0-170.666667v170.666667h170.666667v-170.666667h-170.666667z" p-id="1674"></path></svg>